<?xml version="1.0" encoding="utf-8"?>
<!-- Generator: Adobe Illustrator 21.1.0, SVG Export Plug-In . SVG Version: 6.00 Build 0)  -->
<svg version="1.1" id="Capa_1" xmlns="http://www.w3.org/2000/svg" xmlns:xlink="http://www.w3.org/1999/xlink"
	 viewBox="44 230 755 120">
<style type="text/css">
	.st0{fill:#006438;}
	.st1{fill:#646467;}
</style>
<g>
	<path class="st0" d="M109.2,289.9c0-15,11.5-25.9,27-25.9c8.2,0,15.2,2.9,19.9,8.4l-6,5.7c-3.7-4-8.2-5.9-13.5-5.9
		c-10.4,0-18,7.3-18,17.7s7.6,17.7,18,17.7c5.3,0,9.8-1.9,13.5-6l6,5.8c-4.7,5.5-11.7,8.4-20,8.4C120.8,315.8,109.2,305,109.2,289.9
		z"/>
	<path class="st0" d="M164.3,261.7h9v53.4h-9V261.7z"/>
	<path class="st0" d="M183.8,267.1c0-3,2.4-5.4,5.8-5.4c3.3,0,5.8,2.2,5.8,5.2c0,3.2-2.4,5.6-5.8,5.6
		C186.3,272.5,183.8,270.2,183.8,267.1z M185.1,276.7h9v38.4h-9V276.7z"/>
	<path class="st0" d="M202.7,295.9c0-11.5,8.6-19.6,20.8-19.6c7.5,0,13.5,3.1,16.4,8.9l-6.9,4c-2.3-3.7-5.8-5.3-9.6-5.3
		c-6.6,0-11.7,4.6-11.7,12c0,7.5,5,12,11.7,12c3.8,0,7.3-1.7,9.6-5.3l6.9,4c-2.9,5.8-8.9,9-16.4,9
		C211.3,315.6,202.7,307.4,202.7,295.9z"/>
	<path class="st0" d="M262.9,298.6l-6.7,6.3v10.1h-9v-53.4h9V294l18.6-17.3h10.8l-16,16.1l17.6,22.3h-10.9L262.9,298.6z"/>
	<path class="st1" d="M290.4,296.2c0-11.3,8.2-19.2,19.5-19.2c6.4,0,11.8,2.5,14.8,7.5l-3.8,2.6c-2.6-3.8-6.6-5.6-11-5.6
		c-8.3,0-14.3,5.9-14.3,14.7c0,8.9,6,14.7,14.3,14.7c4.4,0,8.4-1.7,11-5.5l3.8,2.6c-3,4.9-8.4,7.5-14.8,7.5
		C298.6,315.5,290.4,307.5,290.4,296.2z"/>
	<path class="st1" d="M330.3,296.2c0-11.2,8.2-19.2,19.3-19.2c11.1,0,19.2,8,19.2,19.2c0,11.2-8.1,19.3-19.2,19.3
		C338.5,315.5,330.3,307.4,330.3,296.2z M363.6,296.2c0-8.8-6-14.7-14-14.7c-8.1,0-14.1,5.9-14.1,14.7s6,14.7,14.1,14.7
		C357.6,310.9,363.6,305.1,363.6,296.2z"/>
	<path class="st1" d="M441.6,293.2v21.9h-5.1v-21.4c0-8-4-12.1-10.9-12.1c-7.8,0-12.7,5-12.7,13.7v19.9h-5.1v-21.4
		c0-8-4-12.1-10.9-12.1c-7.7,0-12.7,5-12.7,13.7v19.9h-5.1v-37.8h4.9v6.9c2.7-4.5,7.6-7.2,13.9-7.2c6.3,0,11.1,2.7,13.5,8
		c2.7-4.9,8.1-8,15-8C435.6,277,441.6,282.3,441.6,293.2z"/>
	<path class="st1" d="M489.6,277.3v37.8h-4.9v-6.9c-2.7,4.6-7.6,7.3-13.6,7.3c-9.6,0-16-5.4-16-16.3v-21.9h5.1v21.4
		c0,8.1,4.2,12.2,11.4,12.2c7.9,0,12.9-5.1,12.9-13.7v-19.9H489.6z"/>
	<path class="st1" d="M538.7,293.2v21.9h-5.1v-21.4c0-8-4.2-12.1-11.4-12.1c-8.1,0-13.2,5-13.2,13.7v19.9h-5.1v-37.8h4.9v7
		c2.7-4.6,7.8-7.3,14.4-7.3C532.4,277,538.7,282.3,538.7,293.2z"/>
	<path class="st1" d="M551.4,265.3c0-1.9,1.7-3.6,3.7-3.6c2.1,0,3.7,1.6,3.7,3.5c0,2.1-1.6,3.7-3.7,3.7
		C553.1,269,551.4,267.3,551.4,265.3z M552.6,277.3h5.1v37.8h-5.1V277.3z"/>
	<path class="st1" d="M568.1,296.2c0-11.3,8.2-19.2,19.5-19.2c6.4,0,11.8,2.5,14.8,7.5l-3.8,2.6c-2.6-3.8-6.6-5.6-11-5.6
		c-8.3,0-14.3,5.9-14.3,14.7c0,8.9,6,14.7,14.3,14.7c4.4,0,8.4-1.7,11-5.5l3.8,2.6c-3,4.9-8.4,7.5-14.8,7.5
		C576.3,315.5,568.1,307.5,568.1,296.2z"/>
	<path class="st1" d="M641,291.7v23.4h-4.9v-5.9c-2.3,3.9-6.8,6.3-13,6.3c-8.6,0-13.8-4.5-13.8-11c0-5.8,3.7-10.7,14.6-10.7h12v-2.3
		c0-6.5-3.7-10-10.7-10c-4.9,0-9.5,1.7-12.6,4.5l-2.3-3.8c3.8-3.2,9.4-5.1,15.4-5.1C635.4,277,641,281.9,641,291.7z M635.9,303.8
		v-6.2H624c-7.3,0-9.7,2.9-9.7,6.8c0,4.4,3.5,7.1,9.6,7.1C629.6,311.5,633.9,308.7,635.9,303.8z"/>
	<path class="st1" d="M651.2,296.2c0-11.3,8.2-19.2,19.5-19.2c6.4,0,11.8,2.5,14.8,7.5l-3.8,2.6c-2.6-3.8-6.6-5.6-11-5.6
		c-8.3,0-14.3,5.9-14.3,14.7c0,8.9,6,14.7,14.3,14.7c4.4,0,8.4-1.7,11-5.5l3.8,2.6c-3,4.9-8.4,7.5-14.8,7.5
		C659.4,315.5,651.2,307.5,651.2,296.2z"/>
	<path class="st1" d="M694.3,265.3c0-1.9,1.7-3.6,3.7-3.6s3.7,1.6,3.7,3.5c0,2.1-1.6,3.7-3.7,3.7C696,269,694.3,267.3,694.3,265.3z
		 M695.5,277.3h5.1v37.8h-5.1V277.3z"/>
	<path class="st1" d="M711,296.2c0-11.2,8.2-19.2,19.3-19.2s19.2,8,19.2,19.2c0,11.2-8.1,19.3-19.2,19.3S711,307.4,711,296.2z
		 M744.3,296.2c0-8.8-6-14.7-14-14.7c-8.1,0-14.1,5.9-14.1,14.7s6,14.7,14.1,14.7C738.4,310.9,744.3,305.1,744.3,296.2z
		 M735.4,261.7h6.8l-11.7,8.9h-5L735.4,261.7z"/>
	<path class="st1" d="M794.7,293.2v21.9h-5.1v-21.4c0-8-4.2-12.1-11.4-12.1c-8.1,0-13.2,5-13.2,13.7v19.9h-5.1v-37.8h4.9v7
		c2.7-4.6,7.8-7.3,14.4-7.3C788.4,277,794.7,282.3,794.7,293.2z"/>
	<g>
		<path class="st1" d="M299.1,334.3v1.1h-8.6v-12.2h8.4v1.1h-7.1v4.3h6.3v1.1h-6.3v4.5H299.1z"/>
		<path class="st1" d="M314.7,323.2l-5.4,12.2H308l-5.4-12.2h1.4l4.7,10.6l4.7-10.6H314.7z"/>
		<path class="st1" d="M327.6,334.3v1.1H319v-12.2h8.4v1.1h-7.1v4.3h6.3v1.1h-6.3v4.5H327.6z"/>
		<path class="st1" d="M343.5,323.2v12.2h-1.1l-7.9-9.9v9.9h-1.3v-12.2h1.1l7.9,9.9v-9.9H343.5z"/>
		<path class="st1" d="M352.4,324.3h-4.3v-1.1h9.9v1.1h-4.3v11.1h-1.3V324.3z"/>
		<path class="st1" d="M361.3,329.3c0-3.6,2.7-6.2,6.4-6.2c3.7,0,6.4,2.6,6.4,6.2c0,3.6-2.7,6.2-6.4,6.2
			C364,335.6,361.3,332.9,361.3,329.3z M372.8,329.3c0-2.9-2.2-5.1-5.1-5.1c-3,0-5.2,2.1-5.2,5.1c0,2.9,2.2,5.1,5.2,5.1
			C370.7,334.4,372.8,332.3,372.8,329.3z"/>
		<path class="st1" d="M378.4,334l0.5-1c0.9,0.9,2.4,1.5,4,1.5c2.3,0,3.3-1,3.3-2.2c0-3.4-7.5-1.3-7.5-5.8c0-1.8,1.4-3.4,4.5-3.4
			c1.4,0,2.8,0.4,3.8,1.1l-0.4,1c-1-0.7-2.3-1-3.4-1c-2.2,0-3.2,1-3.2,2.2c0,3.4,7.5,1.3,7.5,5.8c0,1.8-1.4,3.3-4.6,3.3
			C381.1,335.6,379.3,334.9,378.4,334z"/>
		<path class="st1" d="M394,334.6c0,0.3-0.1,0.5-0.2,1l-0.7,2.4h-0.8l0.6-2.5c-0.4-0.1-0.6-0.4-0.6-0.9c0-0.5,0.4-0.9,0.9-0.9
			C393.7,333.6,394,334.1,394,334.6z"/>
		<path class="st1" d="M416.2,327.4c0,2.6-1.9,4.2-5,4.2h-3.3v3.9h-1.3v-12.2h4.6C414.3,323.2,416.2,324.8,416.2,327.4z
			 M414.9,327.4c0-2-1.3-3.1-3.7-3.1h-3.2v6.1h3.2C413.6,330.5,414.9,329.3,414.9,327.4z"/>
		<path class="st1" d="M421.5,330.2v-7h1.3v6.9c0,2.9,1.4,4.2,3.7,4.2c2.4,0,3.8-1.3,3.8-4.2v-6.9h1.3v7c0,3.5-1.9,5.3-5,5.3
			C423.4,335.6,421.5,333.7,421.5,330.2z"/>
		<path class="st1" d="M448.2,332.2c0,2.1-1.5,3.3-4.6,3.3H438v-12.2h5.3c2.7,0,4.3,1.2,4.3,3.1c0,1.4-0.8,2.3-1.9,2.8
			C447.3,329.5,448.2,330.5,448.2,332.2z M439.3,324.3v4.4h3.9c2,0,3.1-0.8,3.1-2.2s-1.1-2.2-3.1-2.2H439.3z M446.9,332.1
			c0-1.6-1.2-2.3-3.3-2.3h-4.3v4.6h4.3C445.8,334.4,446.9,333.7,446.9,332.1z"/>
		<path class="st1" d="M453.7,323.2h1.3v11.1h6.8v1.1h-8.1V323.2z"/>
		<path class="st1" d="M466.6,323.2h1.3v12.2h-1.3V323.2z"/>
		<path class="st1" d="M473.3,329.3c0-3.6,2.7-6.2,6.4-6.2c1.8,0,3.4,0.6,4.5,1.8l-0.8,0.8c-1-1-2.2-1.4-3.6-1.4
			c-3,0-5.2,2.2-5.2,5.1c0,2.9,2.2,5.1,5.2,5.1c1.4,0,2.6-0.4,3.6-1.5l0.8,0.8c-1.1,1.2-2.7,1.8-4.5,1.8
			C476,335.6,473.3,332.9,473.3,329.3z"/>
		<path class="st1" d="M489.5,323.2h1.3v12.2h-1.3V323.2z"/>
		<path class="st1" d="M497.3,323.2h5c3.9,0,6.5,2.5,6.5,6.1s-2.6,6.1-6.5,6.1h-5V323.2z M502.2,334.3c3.2,0,5.3-2.1,5.3-5
			c0-2.9-2.1-5-5.3-5h-3.6v10H502.2z"/>
		<path class="st1" d="M521.8,332.2H515l-1.5,3.3h-1.3l5.6-12.2h1.3l5.6,12.2h-1.4L521.8,332.2z M521.3,331.1l-2.9-6.6l-2.9,6.6
			H521.3z"/>
		<path class="st1" d="M529.2,323.2h5c3.9,0,6.5,2.5,6.5,6.1s-2.6,6.1-6.5,6.1h-5V323.2z M534.1,334.3c3.2,0,5.3-2.1,5.3-5
			c0-2.9-2.1-5-5.3-5h-3.6v10H534.1z"/>
		<path class="st1" d="M562,335.6l-1.7-1.7c-1,1.1-2.4,1.7-4.1,1.7c-2.4,0-4.1-1.3-4.1-3.1c0-1.4,0.8-2.5,3.1-3.8
			c-1.2-1.2-1.5-2-1.5-2.9c0-1.6,1.2-2.6,3.1-2.6c1.7,0,2.8,0.9,2.8,2.4c0,1.2-0.7,2.1-2.7,3.2l3.4,3.5c0.4-0.6,0.6-1.4,0.8-2.4
			l1,0.3c-0.2,1.1-0.6,2-1.1,2.8l1.7,1.8L562,335.6z M559.6,333.1l-3.7-3.8c-2,1.1-2.5,1.9-2.5,3c0,1.3,1.2,2.2,3,2.2
			C557.7,334.5,558.8,334.1,559.6,333.1z M554.9,325.7c0,0.7,0.3,1.2,1.4,2.4c1.8-1,2.3-1.6,2.3-2.5c0-0.9-0.6-1.5-1.8-1.5
			C555.6,324.1,554.9,324.8,554.9,325.7z"/>
		<path class="st1" d="M587.4,323.2v12.2h-1.2v-9.8l-4.8,8.2h-0.6l-4.8-8.2v9.7h-1.2v-12.2h1.1l5.3,9.1l5.3-9.1H587.4z"/>
		<path class="st1" d="M601.6,332.2h-6.8l-1.5,3.3h-1.3l5.6-12.2h1.3l5.6,12.2H603L601.6,332.2z M601.1,331.1l-2.9-6.6l-2.9,6.6
			H601.1z"/>
		<path class="st1" d="M617.3,335.5l-2.8-3.9c-0.3,0-0.6,0.1-1,0.1h-3.3v3.9H609v-12.2h4.6c3.1,0,5,1.6,5,4.2c0,1.9-1,3.3-2.8,3.8
			l3,4.2H617.3z M617.2,327.4c0-2-1.3-3.1-3.7-3.1h-3.2v6.1h3.2C616,330.5,617.2,329.3,617.2,327.4z"/>
		<path class="st1" d="M627.9,329.7l-2.5,2.5v3.2h-1.3v-12.2h1.3v7.4l7.2-7.4h1.5l-5.3,5.5l5.7,6.7h-1.5L627.9,329.7z"/>
		<path class="st1" d="M647.8,334.3v1.1h-8.6v-12.2h8.4v1.1h-7.1v4.3h6.3v1.1h-6.3v4.5H647.8z"/>
		<path class="st1" d="M655.7,324.3h-4.3v-1.1h9.9v1.1H657v11.1h-1.3V324.3z"/>
		<path class="st1" d="M665.9,323.2h1.3v12.2h-1.3V323.2z"/>
		<path class="st1" d="M684,323.2v12.2h-1.1l-7.9-9.9v9.9h-1.3v-12.2h1.1l7.9,9.9v-9.9H684z"/>
		<path class="st1" d="M699.1,329.3h1.2v4.7c-1.2,1-2.8,1.6-4.5,1.6c-3.7,0-6.4-2.6-6.4-6.2c0-3.6,2.7-6.2,6.5-6.2
			c1.9,0,3.5,0.6,4.5,1.8l-0.8,0.8c-1-1-2.3-1.4-3.7-1.4c-3,0-5.2,2.1-5.2,5.1c0,2.9,2.2,5.1,5.2,5.1c1.2,0,2.3-0.3,3.2-0.9V329.3z"
			/>
		<path class="st1" d="M712.6,329.3c0-3.6,2.7-6.2,6.4-6.2c3.7,0,6.4,2.6,6.4,6.2c0,3.6-2.7,6.2-6.4,6.2
			C715.3,335.6,712.6,332.9,712.6,329.3z M724.1,329.3c0-2.9-2.2-5.1-5.1-5.1c-3,0-5.2,2.1-5.2,5.1c0,2.9,2.2,5.1,5.2,5.1
			C722,334.4,724.1,332.3,724.1,329.3z"/>
		<path class="st1" d="M741.1,323.2v12.2H740l-7.9-9.9v9.9h-1.3v-12.2h1.1l7.9,9.9v-9.9H741.1z"/>
		<path class="st1" d="M747.6,323.2h1.3v11.1h6.8v1.1h-8.1V323.2z"/>
		<path class="st1" d="M760.5,323.2h1.3v12.2h-1.3V323.2z"/>
		<path class="st1" d="M778.5,323.2v12.2h-1.1l-7.9-9.9v9.9h-1.3v-12.2h1.1l7.9,9.9v-9.9H778.5z"/>
		<path class="st1" d="M793.7,334.3v1.1h-8.6v-12.2h8.4v1.1h-7.1v4.3h6.3v1.1h-6.3v4.5H793.7z"/>
	</g>
	<g>
		<path class="st0" d="M85.5,319.8l9.3-9.3c-5.3-5.2-8.6-12.5-8.6-20.6s3.3-15.3,8.6-20.6l-9.3-9.3c-7.7,7.6-12.5,18.2-12.5,29.8
			S77.8,312.2,85.5,319.8z"/>
		<path class="st0" d="M67.2,338.1l9.2-9.2c-10-9.9-16.2-23.7-16.2-38.9s6.2-29,16.2-38.9l-9.2-9.2c-12.4,12.3-20.1,29.3-20.1,48.1
			S54.8,325.8,67.2,338.1z"/>
	</g>
</g>
</svg>
